<svg width="20" height="20" viewBox="0 0 20 20" fill="none" xmlns="http://www.w3.org/2000/svg">
<path d="M10.0013 1.04175C5.0613 1.04175 1.04297 5.06008 1.04297 10.0001C1.04297 14.9401 5.0613 18.9584 10.0013 18.9584C14.9413 18.9584 18.9596 14.9401 18.9596 10.0001C18.9596 5.06008 14.9413 1.04175 10.0013 1.04175ZM10.0013 17.7084C5.75047 17.7084 2.29297 14.2509 2.29297 10.0001C2.29297 5.74925 5.75047 2.29175 10.0013 2.29175C14.2521 2.29175 17.7096 5.74925 17.7096 10.0001C17.7096 14.2509 14.2521 17.7084 10.0013 17.7084ZM13.5663 8.86592H11.6446V5.41675C11.6446 5.15758 11.4855 4.92592 11.2438 4.83342C11.0022 4.74092 10.7288 4.80675 10.5554 4.99841L5.97212 10.0909C5.80712 10.2742 5.76549 10.5376 5.86632 10.7634C5.96716 10.9892 6.19049 11.1342 6.43715 11.1342H8.35879V14.5834C8.35879 14.8426 8.51798 15.0742 8.75964 15.1667C8.83214 15.1951 8.90796 15.2084 8.98379 15.2084C9.15713 15.2084 9.32795 15.1359 9.44878 15.0017L14.0321 9.90925C14.1971 9.72592 14.2388 9.46258 14.138 9.23675C14.0363 9.01091 13.813 8.86592 13.5663 8.86592ZM9.60798 12.9551V10.5092C9.60798 10.1634 9.32798 9.88424 8.98298 9.88424H7.83964L10.3946 7.04508V9.49092C10.3946 9.83675 10.6746 10.1159 11.0196 10.1159H12.163L9.60798 12.9551Z" fill="#A700AF"/>
</svg>
