<svg width="16" height="18" viewBox="0 0 16 18" fill="none" xmlns="http://www.w3.org/2000/svg">
<path d="M12.1654 2.54167H11.9403C11.8595 1.49667 11.1829 0.875 10.082 0.875H5.91536C4.81453 0.875 4.13788 1.49667 4.05705 2.54167H3.83203C1.81703 2.54167 0.707031 3.65167 0.707031 5.66667V14C0.707031 16.015 1.81703 17.125 3.83203 17.125H12.1654C14.1804 17.125 15.2904 16.015 15.2904 14V5.66667C15.2904 3.65167 14.1804 2.54167 12.1654 2.54167ZM5.29036 2.75C5.29036 2.25917 5.42453 2.125 5.91536 2.125H10.082C10.5729 2.125 10.707 2.25917 10.707 2.75V3.58333C10.707 4.07417 10.5729 4.20833 10.082 4.20833H5.91536C5.42453 4.20833 5.29036 4.07417 5.29036 3.58333V2.75ZM14.0404 14C14.0404 15.3142 13.4795 15.875 12.1654 15.875H3.83203C2.51786 15.875 1.95703 15.3142 1.95703 14V5.66667C1.95703 4.3525 2.51786 3.79167 3.83203 3.79167H4.05705C4.13788 4.83667 4.81453 5.45833 5.91536 5.45833H10.082C11.1829 5.45833 11.8595 4.83667 11.9403 3.79167H12.1654C13.4795 3.79167 14.0404 4.3525 14.0404 5.66667V14ZM11.957 9C11.957 9.345 11.677 9.625 11.332 9.625H7.16536C6.82036 9.625 6.54036 9.345 6.54036 9C6.54036 8.655 6.82036 8.375 7.16536 8.375H11.332C11.677 8.375 11.957 8.655 11.957 9ZM11.957 12.3333C11.957 12.6783 11.677 12.9583 11.332 12.9583H7.16536C6.82036 12.9583 6.54036 12.6783 6.54036 12.3333C6.54036 11.9883 6.82036 11.7083 7.16536 11.7083H11.332C11.677 11.7083 11.957 11.9883 11.957 12.3333ZM5.29036 9C5.29036 9.345 5.01036 9.625 4.66536 9.625C4.32036 9.625 4.04036 9.345 4.04036 9C4.04036 8.655 4.32036 8.375 4.66536 8.375C5.01036 8.375 5.29036 8.655 5.29036 9ZM5.29036 12.3333C5.29036 12.6783 5.01036 12.9583 4.66536 12.9583C4.32036 12.9583 4.04036 12.6783 4.04036 12.3333C4.04036 11.9883 4.32036 11.7083 4.66536 11.7083C5.01036 11.7083 5.29036 11.9883 5.29036 12.3333Z" fill="#000"/>
</svg>
