<svg width="15" height="18" viewBox="0 0 15 18" fill="none" xmlns="http://www.w3.org/2000/svg">
<path d="M14.1097 6.05833L9.10966 1.05833C8.99216 0.940834 8.8338 0.875 8.66797 0.875H3.66797C1.65297 0.875 0.542969 1.985 0.542969 4V14C0.542969 16.015 1.65297 17.125 3.66797 17.125H11.168C13.183 17.125 14.293 16.015 14.293 14V6.5C14.293 6.33417 14.2272 6.175 14.1097 6.05833ZM9.29297 3.00917L12.1588 5.875H11.168C9.8538 5.875 9.29297 5.31417 9.29297 4V3.00917ZM11.168 15.875H3.66797C2.3538 15.875 1.79297 15.3142 1.79297 14V4C1.79297 2.68583 2.3538 2.125 3.66797 2.125H8.04297V4C8.04297 6.015 9.15297 7.125 11.168 7.125H13.043V14C13.043 15.3142 12.4821 15.875 11.168 15.875ZM5.1263 9C5.1263 9.345 4.8463 9.625 4.5013 9.625C4.1563 9.625 3.8763 9.345 3.8763 9C3.8763 8.655 4.1563 8.375 4.5013 8.375C4.8463 8.375 5.1263 8.655 5.1263 9ZM5.1263 12.3333C5.1263 12.6783 4.8463 12.9583 4.5013 12.9583C4.1563 12.9583 3.8763 12.6783 3.8763 12.3333C3.8763 11.9883 4.1563 11.7083 4.5013 11.7083C4.8463 11.7083 5.1263 11.9883 5.1263 12.3333ZM10.9596 9C10.9596 9.345 10.6796 9.625 10.3346 9.625H6.58463C6.23963 9.625 5.95963 9.345 5.95963 9C5.95963 8.655 6.23963 8.375 6.58463 8.375H10.3346C10.6796 8.375 10.9596 8.655 10.9596 9ZM10.9596 12.3333C10.9596 12.6783 10.6796 12.9583 10.3346 12.9583H6.58463C6.23963 12.9583 5.95963 12.6783 5.95963 12.3333C5.95963 11.9883 6.23963 11.7083 6.58463 11.7083H10.3346C10.6796 11.7083 10.9596 11.9883 10.9596 12.3333Z" fill="#A700AF"/>
</svg>
