<svg width="20" height="20" viewBox="0 0 20 20" fill="none" xmlns="http://www.w3.org/2000/svg">
<path d="M11.4583 11.6667C11.4583 12.0117 11.1783 12.2917 10.8333 12.2917H5.83333C5.48833 12.2917 5.20833 12.0117 5.20833 11.6667C5.20833 11.3217 5.48833 11.0417 5.83333 11.0417H10.8333C11.1783 11.0417 11.4583 11.3217 11.4583 11.6667ZM8.33333 13.5417H5.83333C5.48833 13.5417 5.20833 13.8217 5.20833 14.1667C5.20833 14.5117 5.48833 14.7917 5.83333 14.7917H8.33333C8.67833 14.7917 8.95833 14.5117 8.95833 14.1667C8.95833 13.8217 8.67833 13.5417 8.33333 13.5417ZM18.125 9.58333V15.8333C18.125 17.0975 17.0975 18.125 15.8333 18.125H5C2.985 18.125 1.875 17.015 1.875 15V5C1.875 2.985 2.985 1.875 5 1.875H11.6667C13.6817 1.875 14.7917 2.985 14.7917 5V7.70833H16.25C17.2842 7.70833 18.125 8.54917 18.125 9.58333ZM13.7925 16.875C13.6325 16.5625 13.5417 16.2083 13.5417 15.8333V5C13.5417 3.68583 12.9808 3.125 11.6667 3.125H5C3.68583 3.125 3.125 3.68583 3.125 5V15C3.125 16.3142 3.68583 16.875 5 16.875H13.7925ZM16.875 9.58333C16.875 9.23833 16.595 8.95833 16.25 8.95833H14.7917V15.8333C14.7917 16.4075 15.2592 16.875 15.8333 16.875C16.4075 16.875 16.875 16.4075 16.875 15.8333V9.58333ZM6.36083 7.5883L7.13501 7.78829C7.26251 7.82162 7.35168 7.94663 7.35168 8.09163C7.35168 8.2083 7.29502 8.28421 7.26252 8.31838C7.22586 8.35671 7.16251 8.40251 7.07418 8.40251H6.73665C6.59832 8.40251 6.47749 8.28079 6.46082 8.12663C6.42333 7.78329 6.11919 7.53586 5.77169 7.57253C5.42835 7.6092 5.18082 7.91828 5.21749 8.26162C5.28499 8.88828 5.71001 9.38838 6.26917 9.57255V9.58333C6.26917 9.92833 6.54917 10.2083 6.89417 10.2083C7.23917 10.2083 7.51917 9.92833 7.51917 9.58333V9.57753C7.75834 9.50253 7.97917 9.37504 8.16167 9.18671C8.445 8.89171 8.60082 8.50338 8.60082 8.09255C8.60082 7.37922 8.12835 6.75752 7.44919 6.57918L6.67414 6.37919C6.59914 6.35919 6.55081 6.31165 6.51998 6.27248C6.48081 6.22081 6.45752 6.14918 6.45752 6.07585C6.45752 5.90418 6.58164 5.76416 6.73497 5.76416H7.0725C7.2125 5.76416 7.33166 5.88254 7.34833 6.04004C7.38499 6.38337 7.68668 6.6283 8.03752 6.59414C8.38085 6.55747 8.62833 6.24838 8.59166 5.90505C8.52333 5.27088 8.08831 4.76665 7.51831 4.58832V4.58415C7.51831 4.23915 7.23831 3.95915 6.89331 3.95915C6.54831 3.95915 6.26831 4.23915 6.26831 4.58415V4.59666C5.65498 4.79916 5.20752 5.38168 5.20752 6.07585C5.20752 6.42168 5.32001 6.76002 5.52251 7.02586C5.73084 7.30169 6.0275 7.50163 6.36083 7.5883Z" fill="#A700AF"/>
</svg>
