<svg width="20" height="20" viewBox="0 0 20 20" fill="none" xmlns="http://www.w3.org/2000/svg">
<path d="M14.6875 1.875H5.3125C3.09583 1.875 1.875 3.09583 1.875 5.3125V14.6875C1.875 16.9042 3.09583 18.125 5.3125 18.125H14.6875C16.9042 18.125 18.125 16.9042 18.125 14.6875V5.3125C18.125 3.09583 16.9042 1.875 14.6875 1.875ZM16.875 14.6875C16.875 16.2208 16.2208 16.875 14.6875 16.875H5.3125C3.77917 16.875 3.125 16.2208 3.125 14.6875V5.3125C3.125 3.77917 3.77917 3.125 5.3125 3.125H14.6875C16.2208 3.125 16.875 3.77917 16.875 5.3125V14.6875ZM14.7433 7.84078C14.775 7.91745 14.7917 7.99837 14.7917 8.08004V10.4799C14.7917 10.8249 14.5117 11.1049 14.1667 11.1049C13.8217 11.1049 13.5417 10.8249 13.5417 10.4799V9.58842L11.6517 11.4783C11.1442 11.9858 10.2575 11.9866 9.74917 11.4783L8.52084 10.25C8.48917 10.2184 8.41749 10.2184 8.38582 10.25L6.27416 12.3617C6.15249 12.4833 5.99249 12.545 5.83249 12.545C5.67249 12.545 5.51249 12.4842 5.39083 12.3617C5.14666 12.1175 5.14666 11.7216 5.39083 11.4775L7.50249 9.36584C8.02583 8.84168 8.88001 8.84084 9.40501 9.36584L10.6333 10.5941C10.6708 10.6307 10.7308 10.6316 10.7683 10.5941L12.6583 8.70422H11.7667C11.4217 8.70422 11.1417 8.42422 11.1417 8.07922C11.1417 7.73422 11.4217 7.45422 11.7667 7.45422H14.1667C14.2483 7.45422 14.3292 7.47077 14.4058 7.50244C14.5583 7.56661 14.68 7.68828 14.7433 7.84078Z" fill="#000"/>
</svg>
