<svg width="20" height="20" viewBox="0 0 20 20" fill="none" xmlns="http://www.w3.org/2000/svg">
<path d="M10.8333 14.5833C10.8333 15.0433 10.46 15.4167 10 15.4167C9.54 15.4167 9.16667 15.0433 9.16667 14.5833C9.16667 14.1233 9.54 13.75 10 13.75C10.46 13.75 10.8333 14.1233 10.8333 14.5833ZM7.5 10.2083C7.5 8.83 8.62167 7.70833 10 7.70833C11.3783 7.70833 12.5 8.83 12.5 10.2083C12.5 11.5867 11.3783 12.7083 10 12.7083C8.62167 12.7083 7.5 11.5867 7.5 10.2083ZM8.75 10.2083C8.75 10.8975 9.31083 11.4583 10 11.4583C10.6892 11.4583 11.25 10.8975 11.25 10.2083C11.25 9.51917 10.6892 8.95833 10 8.95833C9.31083 8.95833 8.75 9.51917 8.75 10.2083ZM15.2083 5.83333V15C15.2083 17.015 14.0983 18.125 12.0833 18.125H7.91667C5.90167 18.125 4.79167 17.015 4.79167 15V5.83333C4.79167 5.48833 5.07167 5.20833 5.41667 5.20833H14.5833C14.9283 5.20833 15.2083 5.48833 15.2083 5.83333ZM13.9583 6.45833H6.04167V15C6.04167 16.3142 6.6025 16.875 7.91667 16.875H12.0833C13.3975 16.875 13.9583 16.3142 13.9583 15V6.45833ZM16.25 1.875H3.75C2.57583 1.875 1.875 2.57583 1.875 3.75V8.75C1.875 9.7175 2.35667 10.38 3.19667 10.5683C3.53417 10.6417 3.8675 10.4325 3.94333 10.095C4.01916 9.75834 3.80748 9.42418 3.47081 9.34835C3.32498 9.31585 3.12581 9.27083 3.12581 8.75V3.75C3.12581 3.25917 3.25998 3.125 3.75081 3.125H16.2508C16.7416 3.125 16.8758 3.25917 16.8758 3.75V8.75C16.8758 9.27083 16.6766 9.31585 16.5308 9.34835C16.1941 9.42418 15.9825 9.75751 16.0583 10.095C16.1233 10.3858 16.3817 10.5833 16.6667 10.5833C16.7125 10.5833 16.7575 10.5783 16.8041 10.5683C17.6441 10.38 18.1258 9.7175 18.1258 8.75V3.75C18.125 2.57583 17.4242 1.875 16.25 1.875Z" fill="#000"/>
</svg>
