<svg width="18" height="17" viewBox="0 0 18 17" fill="none" xmlns="http://www.w3.org/2000/svg">
<path d="M8.79297 12.9999C8.79297 13.3449 8.51297 13.6249 8.16797 13.6249H3.16797C1.15297 13.6249 0.0429688 12.5149 0.0429688 10.4999V3.83325C0.0429688 1.81825 1.15297 0.708252 3.16797 0.708252H13.168C15.183 0.708252 16.293 1.81825 16.293 3.83325V6.33325C16.293 6.67825 16.013 6.95825 15.668 6.95825C15.323 6.95825 15.043 6.67825 15.043 6.33325V3.83325C15.043 2.51909 14.4821 1.95825 13.168 1.95825H3.16797C1.8538 1.95825 1.29297 2.51909 1.29297 3.83325V10.4999C1.29297 11.8141 1.8538 12.3749 3.16797 12.3749H8.16797C8.51297 12.3749 8.79297 12.6549 8.79297 12.9999ZM2.33464 7.16659C2.33464 7.62659 2.70797 7.99992 3.16797 7.99992C3.62797 7.99992 4.0013 7.62659 4.0013 7.16659C4.0013 6.70659 3.62797 6.33325 3.16797 6.33325C2.70797 6.33325 2.33464 6.70659 2.33464 7.16659ZM8.16797 4.04159C9.8913 4.04159 11.293 5.44325 11.293 7.16659C11.293 8.88992 9.8913 10.2916 8.16797 10.2916C6.44463 10.2916 5.04297 8.88992 5.04297 7.16659C5.04297 5.44325 6.44463 4.04159 8.16797 4.04159ZM8.16797 5.29159C7.1338 5.29159 6.29297 6.13242 6.29297 7.16659C6.29297 8.20075 7.1338 9.04159 8.16797 9.04159C9.20213 9.04159 10.043 8.20075 10.043 7.16659C10.043 6.13242 9.20213 5.29159 8.16797 5.29159ZM17.9596 12.1666C17.9596 14.3491 16.1838 16.1249 14.0013 16.1249C11.8188 16.1249 10.043 14.3491 10.043 12.1666C10.043 9.98409 11.8188 8.20825 14.0013 8.20825C16.1838 8.20825 17.9596 9.98409 17.9596 12.1666ZM16.7096 12.1666C16.7096 10.6733 15.4946 9.45825 14.0013 9.45825C12.508 9.45825 11.293 10.6733 11.293 12.1666C11.293 13.6599 12.508 14.8749 14.0013 14.8749C15.4946 14.8749 16.7096 13.6599 16.7096 12.1666ZM14.6013 11.0299L13.6546 11.9766L13.4021 11.7241C13.158 11.4807 12.7621 11.4799 12.518 11.7241C12.2738 11.9682 12.2738 12.3641 12.518 12.6083L13.2121 13.3024C13.3338 13.4241 13.4938 13.4849 13.6538 13.4849C13.8138 13.4849 13.9738 13.4241 14.0955 13.3016L15.4846 11.9124C15.7288 11.6683 15.7288 11.2724 15.4846 11.0282C15.2405 10.7866 14.8455 10.7866 14.6013 11.0299Z" fill="#000"/>
</svg>
