<svg width="20" height="20" viewBox="0 0 20 20" fill="none" xmlns="http://www.w3.org/2000/svg">
<path d="M17.5 1.875H2.5C2.155 1.875 1.875 2.155 1.875 2.5C1.875 2.845 2.155 3.125 2.5 3.125H3.125V10.8333C3.125 12.8483 4.235 13.9583 6.25 13.9583H9.375V15.4992L7.15335 16.98C6.86585 17.1716 6.78834 17.5592 6.98001 17.8467C7.17084 18.1342 7.55915 18.2117 7.84665 18.02L10 16.5842L12.1533 18.02C12.26 18.0909 12.38 18.125 12.5 18.125C12.7017 18.125 12.9 18.0275 13.0208 17.8467C13.2125 17.5592 13.135 17.1716 12.8475 16.98L10.6258 15.4992V13.9583H13.7508C15.7658 13.9583 16.8758 12.8483 16.8758 10.8333V3.125H17.5C17.845 3.125 18.125 2.845 18.125 2.5C18.125 2.155 17.845 1.875 17.5 1.875ZM15.625 10.8333C15.625 12.1475 15.0642 12.7083 13.75 12.7083H6.25C4.93583 12.7083 4.375 12.1475 4.375 10.8333V3.125H15.625V10.8333ZM6.45833 10.4167V7.08333C6.45833 6.73833 6.73833 6.45833 7.08333 6.45833C7.42833 6.45833 7.70833 6.73833 7.70833 7.08333V10.4167C7.70833 10.7617 7.42833 11.0417 7.08333 11.0417C6.73833 11.0417 6.45833 10.7617 6.45833 10.4167ZM9.375 10.4167V5.41667C9.375 5.07167 9.655 4.79167 10 4.79167C10.345 4.79167 10.625 5.07167 10.625 5.41667V10.4167C10.625 10.7617 10.345 11.0417 10 11.0417C9.655 11.0417 9.375 10.7617 9.375 10.4167ZM12.2917 10.4167V8.75C12.2917 8.405 12.5717 8.125 12.9167 8.125C13.2617 8.125 13.5417 8.405 13.5417 8.75V10.4167C13.5417 10.7617 13.2617 11.0417 12.9167 11.0417C12.5717 11.0417 12.2917 10.7617 12.2917 10.4167Z" fill="#000"/>
</svg>
