<svg width="20" height="20" viewBox="0 0 20 20" fill="none" xmlns="http://www.w3.org/2000/svg">
<path d="M10 18.9584C9.93333 18.9584 9.86662 18.9475 9.80245 18.9258C8.47828 18.4842 1.875 15.935 1.875 9.07334V4.16672C1.875 3.86922 2.08502 3.61163 2.37752 3.55413C6.44419 2.7408 7.88588 2.02588 9.71171 1.12005C9.88754 1.03255 10.1208 1.02095 10.2966 1.10845C12.0975 2.01595 13.52 2.7333 17.6233 3.55413C17.9158 3.61247 18.1258 3.86922 18.1258 4.16672V9.07415C18.1258 15.9358 11.5225 18.485 10.1984 18.9266C10.1334 18.9475 10.0667 18.9584 10 18.9584ZM3.125 4.67677V9.07334C3.125 14.7942 8.47333 17.1235 10 17.671C11.5267 17.1235 16.875 14.7933 16.875 9.07334V4.67677C13.1908 3.90594 11.6416 3.18246 10.0124 2.36496C8.28158 3.2208 6.77917 3.91344 3.125 4.67677ZM9.61833 12.1084L12.9517 8.77508C13.1958 8.53091 13.1958 8.13505 12.9517 7.89088C12.7075 7.64672 12.3116 7.64672 12.0675 7.89088L9.17582 10.7825L7.95085 9.55755C7.70668 9.31338 7.31082 9.31338 7.06665 9.55755C6.82248 9.80172 6.82248 10.1976 7.06665 10.4417L8.73332 12.1084C8.85498 12.2301 9.01501 12.2917 9.17501 12.2917C9.33501 12.2917 9.49666 12.2309 9.61833 12.1084Z" fill="#A700AF"/>
</svg>
