<svg width="18" height="18" viewBox="0 0 18 18" fill="none" xmlns="http://www.w3.org/2000/svg">
<path d="M13.6875 0.875H4.3125C2.09583 0.875 0.875 2.09583 0.875 4.3125V13.6875C0.875 15.9042 2.09583 17.125 4.3125 17.125H13.6875C15.9042 17.125 17.125 15.9042 17.125 13.6875V4.3125C17.125 2.09583 15.9042 0.875 13.6875 0.875ZM15.875 13.6875C15.875 15.2208 15.2208 15.875 13.6875 15.875H4.3125C2.77917 15.875 2.125 15.2208 2.125 13.6875V4.3125C2.125 2.77917 2.77917 2.125 4.3125 2.125H13.6875C15.2208 2.125 15.875 2.77917 15.875 4.3125V13.6875ZM9.625 10.6667V13.1667C9.625 13.5117 9.345 13.7917 9 13.7917C8.655 13.7917 8.375 13.5117 8.375 13.1667V10.6667C8.375 10.3217 8.655 10.0417 9 10.0417C9.345 10.0417 9.625 10.3217 9.625 10.6667ZM12.9583 9V13.1667C12.9583 13.5117 12.6783 13.7917 12.3333 13.7917C11.9883 13.7917 11.7083 13.5117 11.7083 13.1667V9C11.7083 8.655 11.9883 8.375 12.3333 8.375C12.6783 8.375 12.9583 8.655 12.9583 9ZM6.29167 11.9167V13.1667C6.29167 13.5117 6.01167 13.7917 5.66667 13.7917C5.32167 13.7917 5.04167 13.5117 5.04167 13.1667V11.9167C5.04167 11.5717 5.32167 11.2917 5.66667 11.2917C6.01167 11.2917 6.29167 11.5717 6.29167 11.9167ZM12.91 4.59408C12.9417 4.67074 12.9583 4.75167 12.9583 4.83333V6.66663C12.9583 7.01163 12.6783 7.29163 12.3333 7.29163C11.9883 7.29163 11.7083 7.01163 11.7083 6.66663V6.34171L10.2092 7.84074C9.73749 8.31324 8.91248 8.3124 8.44082 7.84074L7.37499 6.77506L6.10836 8.04175C5.98669 8.16341 5.82667 8.22506 5.66667 8.22506C5.50667 8.22506 5.34664 8.16425 5.22498 8.04175C4.98081 7.79758 4.98081 7.40172 5.22498 7.15755L6.49166 5.89087C6.97916 5.40337 7.7725 5.4042 8.26 5.89087L9.32583 6.95675L10.825 5.45752H10.5C10.155 5.45752 9.87499 5.17752 9.87499 4.83252C9.87499 4.48752 10.155 4.20752 10.5 4.20752H12.3333C12.415 4.20752 12.4958 4.22407 12.5725 4.25574C12.725 4.3199 12.8467 4.44158 12.91 4.59408Z" fill="#A700AF"/>
</svg>
