<svg width="18" height="18" viewBox="0 0 18 18" fill="none" xmlns="http://www.w3.org/2000/svg">
<path d="M11.961 17.1251H6.04016C4.20266 17.1251 3.19012 16.1184 3.19012 14.2917C3.19012 12.2884 4.32351 9.94928 7.51935 9.94928H10.4818C13.6776 9.94928 14.811 12.2884 14.811 14.2917C14.811 16.1184 13.7985 17.1251 11.961 17.1251ZM7.51935 11.1993C4.66185 11.1993 4.44012 13.5659 4.44012 14.2917C4.44012 15.4167 4.90433 15.8751 6.04016 15.8751H11.961C13.0968 15.8751 13.561 15.4159 13.561 14.2917C13.561 13.5659 13.3385 11.1993 10.4818 11.1993H7.51935ZM9.00688 8.80172C7.28104 8.80172 5.87679 7.39757 5.87679 5.67173C5.87679 3.9459 7.28104 2.54175 9.00688 2.54175C10.7327 2.54175 12.1377 3.9459 12.1377 5.67173C12.1377 7.39757 10.7327 8.80172 9.00688 8.80172ZM9.00688 3.79175C7.97021 3.79175 7.12679 4.63507 7.12679 5.67173C7.12679 6.7084 7.97021 7.55172 9.00688 7.55172C10.0435 7.55172 10.8877 6.7084 10.8877 5.67173C10.8877 4.63507 10.0435 3.79175 9.00688 3.79175ZM17.9585 9.54177C17.9585 7.8951 16.9377 6.23346 14.6585 6.23346H13.8501C13.5051 6.23346 13.2251 6.51346 13.2251 6.85846C13.2251 7.20346 13.5051 7.48346 13.8501 7.48346H14.6585C16.5094 7.48346 16.7085 8.9226 16.7085 9.54177C16.7085 10.2618 16.4509 10.5167 15.7251 10.5167H15.4251C15.0801 10.5167 14.8001 10.7967 14.8001 11.1417C14.8001 11.4867 15.0801 11.7667 15.4251 11.7667H15.7251C17.1443 11.7667 17.9585 10.9559 17.9585 9.54177ZM14.0827 5.69594C15.2085 5.46928 16.0252 4.46428 16.0252 3.30845C16.0252 1.96678 14.9335 0.875081 13.5918 0.875081C12.9577 0.875081 12.3676 1.11006 11.931 1.53589C11.6835 1.77672 11.6785 2.17258 11.9194 2.42008C12.1594 2.66758 12.5568 2.67262 12.8035 2.43178C13.006 2.23428 13.286 2.1259 13.5918 2.1259C14.2443 2.1259 14.7752 2.65676 14.7752 3.30926C14.7752 3.8726 14.3793 4.36178 13.8352 4.47178C13.4968 4.54011 13.2776 4.87004 13.346 5.20837C13.406 5.50504 13.6668 5.71008 13.9576 5.71008C13.9993 5.70842 14.041 5.70428 14.0827 5.69594ZM3.19185 11.1417C3.19185 10.7967 2.91185 10.5167 2.56685 10.5167H2.27429C1.54846 10.5167 1.29102 10.2618 1.29102 9.54177C1.29102 8.9226 1.49015 7.48346 3.34098 7.48346H4.16597C4.51097 7.48346 4.79097 7.20346 4.79097 6.85846C4.79097 6.51346 4.51097 6.23346 4.16597 6.23346H3.34098C0.90515 6.23346 0.0410156 8.01593 0.0410156 9.54177C0.0410156 10.9559 0.855125 11.7667 2.27429 11.7667H2.56685C2.91185 11.7667 3.19185 11.4867 3.19185 11.1417ZM4.67185 5.20675C4.74019 4.86841 4.52099 4.53839 4.18266 4.47005C3.63266 4.35922 3.23346 3.87087 3.23346 3.30754C3.23346 2.65504 3.7685 2.12427 4.42517 2.12427C4.72517 2.12427 5.00761 2.2351 5.22178 2.43677C5.47261 2.67427 5.86766 2.66258 6.10516 2.41174C6.34266 2.16091 6.33097 1.76513 6.08014 1.52846C5.63431 1.1068 5.04682 0.874268 4.42598 0.874268C3.08015 0.874268 1.98437 1.96587 1.98437 3.30754C1.98437 4.46254 2.80514 5.4668 3.93597 5.69513C3.97764 5.70346 4.01935 5.70754 4.06018 5.70754C4.35101 5.70837 4.61102 5.50341 4.67185 5.20675Z" fill="#A700AF"/>
</svg>
