<svg width="18" height="18" viewBox="0 0 18 18" fill="none" xmlns="http://www.w3.org/2000/svg">
<path d="M17.9596 9.00008C17.9596 4.06008 13.9413 0.041748 9.0013 0.041748C4.0613 0.041748 0.0429688 4.06008 0.0429688 9.00008C0.0429688 11.8917 1.42546 14.4601 3.5588 16.0993C3.56213 16.1026 3.56716 16.1043 3.5705 16.1076C5.07966 17.2635 6.95878 17.9584 9.00211 17.9584C11.0454 17.9584 12.9247 17.2635 14.4338 16.1076C14.4372 16.1043 14.4421 16.1026 14.4454 16.0993C16.5771 14.4601 17.9596 11.8917 17.9596 9.00008ZM1.29297 9.00008C1.29297 4.74925 4.75047 1.29175 9.0013 1.29175C13.2521 1.29175 16.7096 4.74925 16.7096 9.00008C16.7096 11.1026 15.8613 13.0101 14.4913 14.4018C14.1171 12.8176 12.9196 11.35 10.4263 11.35H7.57633C5.083 11.35 3.88462 12.8176 3.51129 14.4018C2.14129 13.0101 1.29297 11.1026 1.29297 9.00008ZM4.63383 15.3451C4.68216 14.4901 5.073 12.6 7.57633 12.6H10.4263C12.9296 12.6 13.3204 14.4901 13.3688 15.3451C12.1263 16.2034 10.6221 16.7084 9.0013 16.7084C7.38047 16.7084 5.87633 16.2026 4.63383 15.3451ZM9.00801 10.4584C10.7305 10.4584 12.133 9.05675 12.133 7.33341C12.133 5.61008 10.7305 4.20841 9.00801 4.20841C7.28551 4.20841 5.88301 5.61008 5.88301 7.33341C5.88301 9.05675 7.28468 10.4584 9.00801 10.4584ZM9.00801 5.45841C10.0413 5.45841 10.883 6.29925 10.883 7.33341C10.883 8.36758 10.0413 9.20841 9.00801 9.20841C7.97468 9.20841 7.13301 8.36758 7.13301 7.33341C7.13301 6.29925 7.97468 5.45841 9.00801 5.45841Z" fill="#A700AF"/>
</svg>
