<svg width="124" height="130" viewBox="0 0 124 130" fill="none" xmlns="http://www.w3.org/2000/svg">
<path opacity="0.1" d="M123.36 130.152V165H6.432V130.152H47.328V42.888C45.6 45.192 42.912 47.592 39.264 50.088C35.616 52.392 31.488 54.6 26.88 56.712C22.272 58.824 17.664 60.552 13.056 61.896C8.448 63.24 4.32 63.912 0.672001 63.912V27.912C4.128 27.912 8.256 26.856 13.056 24.744C18.048 22.44 22.944 19.752 27.744 16.68C32.736 13.608 36.96 10.632 40.416 7.752C44.064 4.67999 46.368 2.27999 47.328 0.551989H86.784V130.152H123.36Z" fill="#0F3141"/>
</svg>
