<svg width="133" height="133" viewBox="0 0 133 133" fill="none" xmlns="http://www.w3.org/2000/svg">
<path opacity="0.1" d="M0.944001 168C0.944001 159.36 1.616 151.584 2.96 144.672C4.304 137.76 6.608 131.328 9.872 125.376C13.328 119.424 17.936 113.856 23.696 108.672C29.648 103.296 37.136 98.112 46.16 93.12C54.032 88.896 60.944 85.248 66.896 82.176C72.848 78.912 77.84 75.936 81.872 73.248C86.096 70.56 89.264 67.872 91.376 65.184C93.488 62.304 94.544 59.04 94.544 55.392C94.544 51.552 93.488 48.096 91.376 45.024C89.264 41.76 86.288 39.168 82.448 37.248C78.608 35.328 73.808 34.368 68.048 34.368C63.44 34.368 59.12 34.944 55.088 36.096C51.248 37.248 47.6 38.88 44.144 40.992C40.88 43.104 37.808 45.504 34.928 48.192C32.048 50.688 29.456 53.376 27.152 56.256L2.672 28.032C5.36 25.344 8.912 22.464 13.328 19.392C17.936 16.128 23.312 13.152 29.456 10.464C35.792 7.58399 42.704 5.27999 50.192 3.55199C57.872 1.63199 66.032 0.671991 74.672 0.671991C87.728 0.671991 98.864 2.78399 108.08 7.008C117.296 11.04 124.304 16.704 129.104 24C134.096 31.296 136.592 39.84 136.592 49.632C136.592 56.352 135.344 62.304 132.848 67.488C130.352 72.672 127.184 77.28 123.344 81.312C119.504 85.152 115.28 88.608 110.672 91.68C106.256 94.752 101.936 97.44 97.712 99.744C91.76 102.816 86.384 105.696 81.584 108.384C76.784 110.88 72.56 113.472 68.912 116.16C65.264 118.656 62 121.248 59.12 123.936C56.432 126.624 54.032 129.696 51.92 133.152H139.76V168H0.944001Z" fill="#0F3141"/>
</svg>
