<svg width="147" height="77" viewBox="0 0 147 77" fill="none" xmlns="http://www.w3.org/2000/svg">
<path d="M56.6902 0.892186C51.8396 0.521441 46.8923 1.34599 42.1546 3.31481L40.5964 3.95235L39.1195 4.65209L36.2872 6.09418L33.6611 7.62734C32.8166 8.08617 31.9912 8.60029 31.1888 9.16718C29.6002 10.2461 28.0938 11.2283 26.753 12.3212L24.7423 13.881L22.905 15.4665C19.0561 18.8109 15.4274 22.5152 12.0582 26.5394C10.0208 28.9613 8.09388 31.5099 6.28718 34.1724C5.36766 35.4952 4.51293 36.8771 3.72779 38.3103L3.73278 37.9787C3.80174 36.389 3.91609 34.8099 4.03407 33.3184L4.68798 25.3258C4.98156 20.7505 5.00421 17.8627 4.53898 17.7551C4.07374 17.6474 3.16964 20.418 2.21838 24.9424C1.69735 27.1941 1.24805 29.9109 0.830987 32.9533C0.620864 34.4814 0.428898 36.086 0.308648 37.7939C0.281422 38.2216 0.254209 38.6492 0.246501 39.0959L0.230169 39.7864L0.230166 40.148L0.255152 40.6601C0.252811 41.0846 0.323055 41.4981 0.461666 41.8757C0.600276 42.2533 0.80438 42.5872 1.06173 42.8574C1.6564 43.3903 2.38542 43.6898 3.15781 43.7185L3.43014 43.7815L3.6117 43.8235L3.95212 43.9023C4.17906 43.9548 4.40236 43.9197 4.62749 43.9284C5.06957 43.9294 5.49215 43.9115 5.92606 43.8961C6.76802 43.874 7.58547 43.8028 8.35435 43.7348C9.95521 43.5845 11.4798 43.402 12.925 43.2012C15.8185 42.7859 18.4138 42.316 20.5671 41.8451C24.893 40.9222 27.5269 40.0273 27.4647 39.5211C27.4025 39.0149 24.6706 38.9903 20.3387 39.3187C18.1614 39.4803 15.5729 39.6624 12.7012 39.8803C11.2782 39.985 9.78404 40.0877 8.22993 40.191C7.45606 40.2289 6.68217 40.2668 5.90012 40.2883L5.34957 40.2911C6.01813 39.5201 7.01802 38.2471 8.68329 36.2167C10.1312 34.4543 12.0265 32.1011 14.6772 29.1705C18.0342 25.4294 21.6038 21.9712 25.3556 18.8254L27.1085 17.1914L29.0452 15.7446C30.3328 14.7262 31.778 13.8022 33.3071 12.8252C34.0621 12.3037 34.838 11.8313 35.631 11.4101L38.1087 10.0017L40.788 8.7557C41.2437 8.54291 41.6994 8.33012 42.1356 8.09836C42.5718 7.86659 43.0828 7.72447 43.5662 7.54702C47.6822 5.82313 51.9815 5.0855 56.2019 5.37909C58.4309 5.58154 60.5601 6.34029 62.4529 7.60661C64.3164 8.89476 65.8074 10.7894 66.7672 13.0891C64.2608 14.9979 61.9269 17.2298 59.8129 19.7394C57.2342 22.7081 55.1549 26.225 53.7042 30.0716C53.023 32.0431 52.6368 34.1145 52.5641 36.1869C52.4419 38.5426 52.9744 40.8156 54.0798 42.6563C54.8016 43.8028 55.794 44.6631 56.9475 45.1425C58.1418 45.6346 59.4556 45.7134 60.7442 45.3701C62.7358 44.7764 64.5708 43.4645 65.987 41.6217C68.1755 38.7042 69.8226 35.2936 70.8067 31.6422C71.8388 28.2911 72.4107 24.8069 72.4995 21.3297C72.5467 19.0302 72.3189 16.7617 71.8231 14.5916C74.5055 12.8887 77.3666 11.6896 80.2957 11.0409C82.0079 10.7045 83.7304 10.5889 85.4323 10.6962C87.1209 10.8266 88.7714 11.2085 90.3457 11.8331C93.5097 13.1466 96.3391 15.2815 98.6406 18.0919C99.7672 19.4263 100.744 20.9294 101.55 22.5694C101.942 23.3647 102.294 24.1899 102.604 25.0409C102.885 25.8933 103.121 26.7691 103.312 27.6638C103.522 28.5883 103.67 29.5366 103.755 30.5003C101.454 32.2274 99.2435 34.1326 97.1399 36.2021C94.4025 38.8365 91.9532 41.8765 89.8611 45.2365C88.7261 47.0191 87.9149 49.0435 87.4846 51.167C87.2223 52.5471 87.4064 53.9502 87.9994 55.0904C88.1789 55.4157 88.391 55.7123 88.6317 55.9744C88.8659 56.2022 89.1001 56.43 89.3407 56.6303C89.5983 56.8464 89.8771 57.0273 90.1722 57.1698C90.4619 57.3475 90.7748 57.4735 91.1017 57.544C92.3091 57.8999 93.6081 57.8183 94.8381 57.3093C95.3729 57.1143 95.8954 56.8623 96.399 56.5566C96.8607 56.2652 97.3101 55.9442 97.7453 55.5952C99.3517 54.2605 100.782 52.6362 101.978 50.7885C104.263 47.351 105.91 43.4118 106.797 39.2611C107.258 37.1851 107.506 35.071 107.536 32.9663C107.552 32.4347 107.544 31.8978 107.526 31.3583C110.221 29.4346 113.043 27.8064 115.955 26.4957C118.906 25.1437 121.971 24.289 125.054 23.9579C128.014 23.6118 130.948 24.0243 133.657 25.1673C136.17 26.273 138.401 28.0435 140.191 30.3535C141.82 32.4147 143.034 34.8989 143.753 37.6434C144.854 42.4905 144.261 47.8197 142.101 52.4785C141.226 54.5696 140.19 56.5726 139.008 58.46C137.955 60.1962 136.822 61.866 135.615 63.461C133.65 66.0499 131.561 68.5038 129.36 70.8085C125.71 74.6504 123.48 76.5358 123.573 76.7019C124.2 76.415 124.793 76.0151 125.33 75.5172C126.425 74.6569 128.008 73.3452 129.951 71.5093C132.289 69.3019 134.507 66.915 136.589 64.3663C137.875 62.7967 139.088 61.1452 140.22 59.4204C141.498 57.4948 142.632 55.4474 143.608 53.3045C144.688 50.935 145.469 48.4133 145.924 45.8267C146.428 42.9347 146.357 39.9994 145.718 37.2593C144.941 34.2013 143.611 31.4285 141.815 29.1235C139.834 26.4611 137.342 24.4027 134.519 23.0957C131.46 21.738 128.136 21.2006 124.77 21.5197C121.412 21.8249 118.067 22.6924 114.837 24.0961C112.181 25.2488 109.591 26.6473 107.091 28.2779C107.019 27.8128 106.933 27.3589 106.835 26.9024C106.434 24.7124 105.765 22.6286 104.848 20.7144C103.921 18.7811 102.79 17.0087 101.479 15.4362C98.7813 12.1224 95.4634 9.59844 91.7504 8.03557C89.8196 7.27053 87.7956 6.8022 85.725 6.64137C83.6961 6.49641 81.6405 6.62735 79.5976 7.03167C76.4261 7.69795 73.3187 8.93027 70.3837 10.6857C69.0664 7.85373 67.1391 5.52236 64.7795 3.90669C62.3069 2.24607 59.523 1.25199 56.6081 0.988897L56.6902 0.892186ZM103.772 34.2506C103.706 35.6994 103.523 37.149 103.225 38.5792C102.472 42.2517 101.05 45.7474 99.0637 48.8124C98.0996 50.3298 96.9455 51.6703 95.6469 52.7808C95.3437 53.0578 95.0028 53.2393 94.6833 53.4836C94.3625 53.6748 94.0326 53.8401 93.6961 53.9784C93.1461 54.2357 92.5571 54.296 92.0063 54.1515C91.879 54.1583 91.7546 54.1296 91.6432 54.0675C91.5297 54.0413 91.4049 54.0124 91.3087 53.8599L91.0595 53.5419C90.9873 53.4733 90.9258 53.3907 90.877 53.2972C90.6478 52.8004 90.5897 52.2046 90.714 51.6249C91.0631 49.9554 91.7005 48.3628 92.5844 46.9515C94.492 43.8212 96.7266 40.9761 99.2278 38.4934C100.704 37.0028 102.227 35.5903 103.795 34.2559L103.772 34.2506ZM67.9496 17.4852C68.4731 21.749 68.0498 26.1936 66.7203 30.3929C65.9005 33.4467 64.5411 36.3066 62.7371 38.7723C61.9527 39.8211 60.9414 40.5943 59.8323 40.9931C59.4152 41.1261 58.9845 41.1106 58.5958 40.9484C58.2071 40.7863 57.8783 40.485 57.6518 40.0836C57.0227 38.9474 56.7298 37.5735 56.8148 36.1579C56.8691 34.5555 57.1629 32.9534 57.6825 31.4261C58.9403 28.1171 60.7269 25.087 62.9361 22.5162C64.4966 20.6557 66.1898 18.9601 67.9932 17.4519" fill="white"/>
</svg>
