<svg width="187" height="374" viewBox="0 0 187 374" fill="none" xmlns="http://www.w3.org/2000/svg">
<g opacity="0.1">
<path d="M288.508 357.897C286.738 358.947 284.95 359.971 283.145 360.968C284.282 359.184 286.248 357.977 288.508 357.897Z" fill="#ED13F7"/>
<path d="M333.887 321.01C331.022 324.137 328.059 327.173 325.001 330.112C322.914 329.014 321.479 326.837 321.448 324.313C321.404 320.648 324.34 317.641 328.005 317.597C330.528 317.567 332.74 318.949 333.887 321.01Z" fill="#ED13F7"/>
<path d="M363.728 278.424C362.775 280.252 361.794 282.064 360.787 283.859C360.812 281.598 361.972 279.603 363.728 278.424Z" fill="#ED13F7"/>
<path d="M95.1727 363.227C93.3441 362.274 91.5321 361.294 89.7371 360.286C91.9982 360.312 93.9934 361.471 95.1727 363.227Z" fill="#ED13F7"/>
<path d="M52.5868 333.387C54.6473 332.239 56.0296 330.028 55.9992 327.504C55.9552 323.839 52.9483 320.904 49.2832 320.948C46.7596 320.978 44.5819 322.413 43.4846 324.501C46.4238 327.558 49.4595 330.522 52.5868 333.387Z" fill="#ED13F7"/>
<path d="M15.6995 288.008C15.6196 285.748 14.4127 283.781 12.6287 282.644C13.6253 284.449 14.6491 286.237 15.6995 288.008Z" fill="#ED13F7"/>
<path d="M10.369 94.6723C12.1252 93.4929 13.2844 91.4978 13.31 89.2367C12.3024 91.0316 11.3219 92.8437 10.369 94.6723Z" fill="#ED13F7"/>
<path d="M40.2098 52.0864C41.357 54.1468 43.5685 55.5292 46.0922 55.4988C49.7573 55.4548 52.6927 52.4479 52.6486 48.7828C52.6183 46.2592 51.1832 44.0815 49.0957 42.9842C46.0382 45.9234 43.0747 48.9591 40.2098 52.0864Z" fill="#ED13F7"/>
<path d="M85.5887 15.1991C87.8485 15.1192 89.8152 13.9123 90.952 12.1283C89.1469 13.1249 87.3589 14.1487 85.5887 15.1991Z" fill="#ED13F7"/>
<path d="M365.588 131.304C361.923 131.348 358.916 128.413 358.872 124.748C358.828 121.083 361.764 118.076 365.429 118.032C369.094 117.988 372.101 120.923 372.145 124.588C372.189 128.253 369.253 131.26 365.588 131.304Z" fill="#ED13F7"/>
<path d="M366.067 171.122C362.402 171.166 359.395 168.23 359.351 164.565C359.307 160.9 362.242 157.893 365.907 157.849C369.572 157.805 372.579 160.74 372.623 164.406C372.667 168.071 369.732 171.077 366.067 171.122Z" fill="#ED13F7"/>
<path d="M366.546 210.939C362.88 210.983 359.874 208.048 359.83 204.382C359.785 200.717 362.721 197.71 366.386 197.666C370.051 197.622 373.058 200.558 373.102 204.223C373.146 207.888 370.211 210.895 366.546 210.939Z" fill="#ED13F7"/>
<path d="M367.024 250.756C363.359 250.8 360.352 247.865 360.308 244.2C360.264 240.535 363.2 237.528 366.865 237.484C370.53 237.44 373.537 240.375 373.581 244.04C373.625 247.705 370.689 250.712 367.024 250.756Z" fill="#ED13F7"/>
<path d="M325.292 91.9655C321.627 92.0096 318.62 89.0742 318.576 85.4091C318.532 81.744 321.468 78.7372 325.133 78.6931C328.798 78.649 331.805 81.5845 331.849 85.2496C331.893 88.9146 328.957 91.9215 325.292 91.9655Z" fill="#ED13F7"/>
<path d="M325.771 131.783C322.106 131.827 319.099 128.892 319.055 125.226C319.011 121.561 321.946 118.554 325.611 118.51C329.276 118.466 332.283 121.402 332.327 125.067C332.371 128.732 329.436 131.739 325.771 131.783Z" fill="#ED13F7"/>
<path d="M326.25 171.6C322.584 171.644 319.578 168.709 319.534 165.044C319.489 161.379 322.425 158.372 326.09 158.328C329.755 158.284 332.762 161.219 332.806 164.884C332.85 168.549 329.915 171.556 326.25 171.6Z" fill="#ED13F7"/>
<path d="M326.728 211.418C323.063 211.462 320.056 208.526 320.012 204.861C319.968 201.196 322.904 198.189 326.569 198.145C330.234 198.101 333.241 201.036 333.285 204.702C333.329 208.367 330.393 211.374 326.728 211.418Z" fill="#ED13F7"/>
<path d="M327.207 251.235C323.542 251.279 320.535 248.343 320.491 244.678C320.447 241.013 323.382 238.006 327.047 237.962C330.712 237.918 333.719 240.854 333.763 244.519C333.807 248.184 330.872 251.191 327.207 251.235Z" fill="#ED13F7"/>
<path d="M327.686 291.052C324.02 291.096 321.014 288.161 320.97 284.496C320.925 280.831 323.861 277.824 327.526 277.78C331.191 277.736 334.198 280.671 334.242 284.336C334.286 288.001 331.351 291.008 327.686 291.052Z" fill="#ED13F7"/>
<path d="M284.996 52.6269C281.331 52.6709 278.324 49.7355 278.28 46.0704C278.236 42.4053 281.172 39.3985 284.837 39.3544C288.502 39.3104 291.509 42.2458 291.553 45.9109C291.597 49.576 288.661 52.5828 284.996 52.6269Z" fill="#ED13F7"/>
<path d="M285.475 92.4442C281.81 92.4883 278.803 89.5529 278.759 85.8878C278.715 82.2227 281.65 79.2158 285.315 79.1718C288.98 79.1277 291.987 82.0631 292.031 85.7282C292.075 89.3933 289.14 92.4001 285.475 92.4442Z" fill="#ED13F7"/>
<path d="M285.954 132.262C282.288 132.306 279.282 129.37 279.238 125.705C279.193 122.04 282.129 119.033 285.794 118.989C289.459 118.945 292.466 121.88 292.51 125.546C292.554 129.211 289.619 132.217 285.954 132.262Z" fill="#ED13F7"/>
<path d="M286.432 172.079C282.767 172.123 279.76 169.188 279.716 165.522C279.672 161.857 282.608 158.851 286.273 158.806C289.938 158.762 292.945 161.698 292.989 165.363C293.033 169.028 290.097 172.035 286.432 172.079Z" fill="#ED13F7"/>
<path d="M286.911 211.896C283.246 211.94 280.239 209.005 280.195 205.34C280.151 201.675 283.086 198.668 286.751 198.624C290.416 198.58 293.423 201.515 293.467 205.18C293.511 208.845 290.576 211.852 286.911 211.896Z" fill="#ED13F7"/>
<path d="M287.39 251.714C283.724 251.758 280.718 248.822 280.674 245.157C280.629 241.492 283.565 238.485 287.23 238.441C290.895 238.397 293.902 241.332 293.946 244.997C293.99 248.663 291.055 251.669 287.39 251.714Z" fill="#ED13F7"/>
<path d="M287.868 291.531C284.203 291.575 281.196 288.639 281.152 284.974C281.108 281.309 284.044 278.302 287.709 278.258C291.374 278.214 294.381 281.15 294.425 284.815C294.469 288.48 291.533 291.487 287.868 291.531Z" fill="#ED13F7"/>
<path d="M288.347 331.348C284.682 331.392 281.675 328.457 281.631 324.792C281.587 321.127 284.522 318.12 288.187 318.076C291.852 318.032 294.859 320.967 294.903 324.632C294.947 328.297 292.012 331.304 288.347 331.348Z" fill="#ED13F7"/>
<path d="M244.7 13.2882C241.035 13.3323 238.028 10.3968 237.984 6.73175C237.94 3.06667 240.876 0.0598133 244.541 0.015754C248.206 -0.0283053 251.213 2.90712 251.257 6.5722C251.301 10.2373 248.365 13.2441 244.7 13.2882Z" fill="#ED13F7"/>
<path d="M245.179 53.1055C241.514 53.1496 238.507 50.2142 238.463 46.5491C238.419 42.884 241.354 39.8771 245.019 39.8331C248.684 39.789 251.691 42.7245 251.735 46.3895C251.779 50.0546 248.844 53.0615 245.179 53.1055Z" fill="#ED13F7"/>
<path d="M245.658 92.9229C241.992 92.9669 238.986 90.0315 238.942 86.3664C238.897 82.7013 241.833 79.6945 245.498 79.6504C249.163 79.6064 252.17 82.5418 252.214 86.2069C252.258 89.872 249.323 92.8788 245.658 92.9229Z" fill="#ED13F7"/>
<path d="M246.136 132.74C242.471 132.784 239.464 129.849 239.42 126.184C239.376 122.519 242.312 119.512 245.977 119.468C249.642 119.424 252.649 122.359 252.693 126.024C252.737 129.689 249.801 132.696 246.136 132.74Z" fill="#ED13F7"/>
<path d="M246.615 172.558C242.95 172.602 239.943 169.666 239.899 166.001C239.855 162.336 242.79 159.329 246.455 159.285C250.12 159.241 253.127 162.176 253.171 165.842C253.215 169.507 250.28 172.513 246.615 172.558Z" fill="#ED13F7"/>
<path d="M247.094 212.375C243.428 212.419 240.422 209.483 240.378 205.818C240.333 202.153 243.269 199.146 246.934 199.102C250.599 199.058 253.606 201.994 253.65 205.659C253.694 209.324 250.759 212.331 247.094 212.375Z" fill="#ED13F7"/>
<path d="M247.572 252.192C243.907 252.236 240.9 249.301 240.856 245.636C240.812 241.971 243.748 238.964 247.413 238.92C251.078 238.876 254.085 241.811 254.129 245.476C254.173 249.141 251.237 252.148 247.572 252.192Z" fill="#ED13F7"/>
<path d="M248.051 292.009C244.386 292.054 241.379 289.118 241.335 285.453C241.291 281.788 244.226 278.781 247.891 278.737C251.556 278.693 254.563 281.628 254.607 285.294C254.651 288.959 251.716 291.965 248.051 292.009Z" fill="#ED13F7"/>
<path d="M248.529 331.827C244.864 331.871 241.858 328.935 241.814 325.27C241.769 321.605 244.705 318.598 248.37 318.554C252.035 318.51 255.042 321.446 255.086 325.111C255.13 328.776 252.195 331.783 248.529 331.827Z" fill="#ED13F7"/>
<path d="M249.008 371.644C245.343 371.688 242.336 368.753 242.292 365.088C242.248 361.423 245.184 358.416 248.849 358.372C252.514 358.328 255.521 361.263 255.565 364.928C255.609 368.593 252.673 371.6 249.008 371.644Z" fill="#ED13F7"/>
<path d="M204.883 13.7669C201.218 13.8109 198.211 10.8755 198.167 7.21041C198.123 3.54533 201.058 0.538472 204.723 0.494413C208.388 0.450354 211.395 3.38577 211.439 7.05086C211.483 10.7159 208.548 13.7228 204.883 13.7669Z" fill="#ED13F7"/>
<path d="M205.362 53.5842C201.696 53.6283 198.69 50.6928 198.646 47.0277C198.601 43.3627 201.537 40.3558 205.202 40.3117C208.867 40.2677 211.874 43.2031 211.918 46.8682C211.962 50.5333 209.027 53.5401 205.362 53.5842Z" fill="#ED13F7"/>
<path d="M205.84 93.4015C202.175 93.4456 199.168 90.5102 199.124 86.8451C199.08 83.18 202.016 80.1731 205.681 80.1291C209.346 80.085 212.353 83.0204 212.397 86.6855C212.441 90.3506 209.505 93.3575 205.84 93.4015Z" fill="#ED13F7"/>
<path d="M206.319 133.219C202.654 133.263 199.647 130.327 199.603 126.662C199.559 122.997 202.494 119.99 206.159 119.946C209.824 119.902 212.831 122.838 212.875 126.503C212.919 130.168 209.984 133.175 206.319 133.219Z" fill="#ED13F7"/>
<path d="M206.798 173.036C203.132 173.08 200.126 170.145 200.082 166.48C200.037 162.815 202.973 159.808 206.638 159.764C210.303 159.72 213.31 162.655 213.354 166.32C213.398 169.985 210.463 172.992 206.798 173.036Z" fill="#ED13F7"/>
<path d="M207.276 212.854C203.611 212.898 200.604 209.962 200.56 206.297C200.516 202.632 203.452 199.625 207.117 199.581C210.782 199.537 213.789 202.472 213.833 206.138C213.877 209.803 210.941 212.809 207.276 212.854Z" fill="#ED13F7"/>
<path d="M207.755 252.671C204.09 252.715 201.083 249.779 201.039 246.114C200.995 242.449 203.93 239.442 207.595 239.398C211.26 239.354 214.267 242.29 214.311 245.955C214.355 249.62 211.42 252.627 207.755 252.671Z" fill="#ED13F7"/>
<path d="M208.234 292.488C204.568 292.532 201.562 289.597 201.518 285.932C201.473 282.267 204.409 279.26 208.074 279.216C211.739 279.172 214.746 282.107 214.79 285.772C214.834 289.437 211.899 292.444 208.234 292.488Z" fill="#ED13F7"/>
<path d="M208.712 332.305C205.047 332.35 202.04 329.414 201.996 325.749C201.952 322.084 204.888 319.077 208.553 319.033C212.218 318.989 215.225 321.924 215.269 325.59C215.313 329.255 212.377 332.261 208.712 332.305Z" fill="#ED13F7"/>
<path d="M209.191 372.123C205.526 372.167 202.519 369.231 202.475 365.566C202.431 361.901 205.366 358.894 209.031 358.85C212.696 358.806 215.703 361.742 215.747 365.407C215.791 369.072 212.856 372.079 209.191 372.123Z" fill="#ED13F7"/>
<path d="M165.066 14.2455C161.4 14.2896 158.394 11.3542 158.35 7.68907C158.305 4.02399 161.241 1.01713 164.906 0.973072C168.571 0.929013 171.578 3.86443 171.622 7.52952C171.666 11.1946 168.731 14.2015 165.066 14.2455Z" fill="#ED13F7"/>
<path d="M165.544 54.0629C161.879 54.1069 158.872 51.1715 158.828 47.5064C158.784 43.8413 161.72 40.8345 165.385 40.7904C169.05 40.7463 172.057 43.6818 172.101 47.3469C172.145 51.0119 169.209 54.0188 165.544 54.0629Z" fill="#ED13F7"/>
<path d="M166.023 93.8802C162.358 93.9242 159.351 90.9888 159.307 87.3237C159.263 83.6587 162.198 80.6518 165.863 80.6077C169.528 80.5637 172.535 83.4991 172.579 87.1642C172.623 90.8293 169.688 93.8361 166.023 93.8802Z" fill="#ED13F7"/>
<path d="M166.502 133.698C162.836 133.742 159.83 130.806 159.786 127.141C159.741 123.476 162.677 120.469 166.342 120.425C170.007 120.381 173.014 123.316 173.058 126.982C173.102 130.647 170.167 133.653 166.502 133.698Z" fill="#ED13F7"/>
<path d="M166.98 173.515C163.315 173.559 160.308 170.623 160.264 166.958C160.22 163.293 163.156 160.286 166.821 160.242C170.486 160.198 173.493 163.134 173.537 166.799C173.581 170.464 170.645 173.471 166.98 173.515Z" fill="#ED13F7"/>
<path d="M167.459 213.332C163.794 213.376 160.787 210.441 160.743 206.776C160.699 203.111 163.634 200.104 167.299 200.06C170.964 200.016 173.971 202.951 174.015 206.616C174.059 210.281 171.124 213.288 167.459 213.332Z" fill="#ED13F7"/>
<path d="M167.938 253.15C164.272 253.194 161.266 250.258 161.221 246.593C161.177 242.928 164.113 239.921 167.778 239.877C171.443 239.833 174.45 242.768 174.494 246.433C174.538 250.099 171.603 253.105 167.938 253.15Z" fill="#ED13F7"/>
<path d="M168.416 292.967C164.751 293.011 161.744 290.075 161.7 286.41C161.656 282.745 164.592 279.738 168.257 279.694C171.922 279.65 174.929 282.586 174.973 286.251C175.017 289.916 172.081 292.923 168.416 292.967Z" fill="#ED13F7"/>
<path d="M168.895 332.784C165.23 332.828 162.223 329.893 162.179 326.228C162.135 322.563 165.07 319.556 168.735 319.512C172.4 319.468 175.407 322.403 175.451 326.068C175.495 329.733 172.56 332.74 168.895 332.784Z" fill="#ED13F7"/>
<path d="M169.373 372.601C165.708 372.646 162.702 369.71 162.657 366.045C162.613 362.38 165.549 359.373 169.214 359.329C172.879 359.285 175.886 362.22 175.93 365.885C175.974 369.551 173.039 372.557 169.373 372.601Z" fill="#ED13F7"/>
<path d="M125.248 14.7242C121.583 14.7682 118.576 11.8328 118.532 8.16773C118.488 4.50265 121.424 1.49579 125.089 1.45173C128.754 1.40767 131.761 4.34309 131.805 8.00818C131.849 11.6733 128.913 14.6801 125.248 14.7242Z" fill="#ED13F7"/>
<path d="M125.727 54.5415C122.062 54.5856 119.055 51.6502 119.011 47.9851C118.967 44.32 121.902 41.3131 125.567 41.2691C129.232 41.225 132.239 44.1604 132.283 47.8255C132.327 51.4906 129.392 54.4975 125.727 54.5415Z" fill="#ED13F7"/>
<path d="M126.206 94.3588C122.54 94.4029 119.534 91.4675 119.49 87.8024C119.445 84.1373 122.381 81.1305 126.046 81.0864C129.711 81.0423 132.718 83.9778 132.762 87.6429C132.806 91.3079 129.871 94.3148 126.206 94.3588Z" fill="#ED13F7"/>
<path d="M126.684 134.176C123.019 134.22 120.012 131.285 119.968 127.62C119.924 123.955 122.86 120.948 126.525 120.904C130.19 120.86 133.197 123.795 133.241 127.46C133.285 131.125 130.349 134.132 126.684 134.176Z" fill="#ED13F7"/>
<path d="M127.163 173.994C123.498 174.038 120.491 171.102 120.447 167.437C120.403 163.772 123.338 160.765 127.003 160.721C130.668 160.677 133.675 163.612 133.719 167.278C133.763 170.943 130.828 173.949 127.163 173.994Z" fill="#ED13F7"/>
<path d="M127.642 213.811C123.976 213.855 120.97 210.919 120.925 207.254C120.881 203.589 123.817 200.582 127.482 200.538C131.147 200.494 134.154 203.43 134.198 207.095C134.242 210.76 131.307 213.767 127.642 213.811Z" fill="#ED13F7"/>
<path d="M128.12 253.628C124.455 253.672 121.448 250.737 121.404 247.072C121.36 243.407 124.296 240.4 127.961 240.356C131.626 240.312 134.633 243.247 134.677 246.912C134.721 250.577 131.785 253.584 128.12 253.628Z" fill="#ED13F7"/>
<path d="M128.599 293.445C124.934 293.49 121.927 290.554 121.883 286.889C121.839 283.224 124.774 280.217 128.439 280.173C132.104 280.129 135.111 283.064 135.155 286.729C135.199 290.395 132.264 293.401 128.599 293.445Z" fill="#ED13F7"/>
<path d="M129.077 333.263C125.412 333.307 122.406 330.371 122.361 326.706C122.317 323.041 125.253 320.034 128.918 319.99C132.583 319.946 135.59 322.882 135.634 326.547C135.678 330.212 132.743 333.219 129.077 333.263Z" fill="#ED13F7"/>
<path d="M129.556 373.08C125.891 373.124 122.884 370.189 122.84 366.524C122.796 362.859 125.732 359.852 129.397 359.808C133.062 359.764 136.069 362.699 136.113 366.364C136.157 370.029 133.221 373.036 129.556 373.08Z" fill="#ED13F7"/>
<path d="M85.9095 55.0202C82.2445 55.0642 79.2376 52.1288 79.1935 48.4637C79.1495 44.7986 82.0849 41.7918 85.75 41.7477C89.4151 41.7037 92.4219 44.6391 92.466 48.3042C92.51 51.9693 89.5746 54.9761 85.9095 55.0202Z" fill="#ED13F7"/>
<path d="M86.3882 94.8375C82.7231 94.8816 79.7163 91.9462 79.6722 88.2811C79.6281 84.616 82.5636 81.6091 86.2286 81.5651C89.8937 81.521 92.9006 84.4564 92.9446 88.1215C92.9887 91.7866 90.0533 94.7934 86.3882 94.8375Z" fill="#ED13F7"/>
<path d="M86.8668 134.655C83.2018 134.699 80.1949 131.763 80.1509 128.098C80.1068 124.433 83.0422 121.426 86.7073 121.382C90.3724 121.338 93.3792 124.274 93.4233 127.939C93.4673 131.604 90.5319 134.611 86.8668 134.655Z" fill="#ED13F7"/>
<path d="M87.3455 174.472C83.6804 174.516 80.6736 171.581 80.6295 167.916C80.5855 164.251 83.5209 161.244 87.186 161.2C90.851 161.156 93.8579 164.091 93.9019 167.756C93.946 171.421 91.0106 174.428 87.3455 174.472Z" fill="#ED13F7"/>
<path d="M87.8242 214.29C84.1591 214.334 81.1522 211.398 81.1082 207.733C81.0641 204.068 83.9995 201.061 87.6646 201.017C91.3297 200.973 94.3365 203.908 94.3806 207.573C94.4247 211.239 91.4892 214.245 87.8242 214.29Z" fill="#ED13F7"/>
<path d="M88.3028 254.107C84.6377 254.151 81.6309 251.215 81.5868 247.55C81.5428 243.885 84.4782 240.878 88.1433 240.834C91.8084 240.79 94.8152 243.726 94.8593 247.391C94.9033 251.056 91.9679 254.063 88.3028 254.107Z" fill="#ED13F7"/>
<path d="M88.7815 293.924C85.1164 293.968 82.1096 291.033 82.0655 287.368C82.0214 283.703 84.9569 280.696 88.6219 280.652C92.287 280.608 95.2939 283.543 95.3379 287.208C95.382 290.873 92.4466 293.88 88.7815 293.924Z" fill="#ED13F7"/>
<path d="M89.2601 333.741C85.5951 333.786 82.5882 330.85 82.5442 327.185C82.5001 323.52 85.4355 320.513 89.1006 320.469C92.7657 320.425 95.7725 323.36 95.8166 327.025C95.8606 330.691 92.9252 333.697 89.2601 333.741Z" fill="#ED13F7"/>
<path d="M46.5708 95.3162C42.9058 95.3602 39.8989 92.4248 39.8549 88.7597C39.8108 85.0946 42.7462 82.0878 46.4113 82.0437C50.0764 81.9997 53.0832 84.9351 53.1273 88.6002C53.1713 92.2653 50.2359 95.2721 46.5708 95.3162Z" fill="#ED13F7"/>
<path d="M47.0495 135.133C43.3844 135.178 40.3776 132.242 40.3335 128.577C40.2895 124.912 43.2249 121.905 46.89 121.861C50.555 121.817 53.5619 124.752 53.6059 128.417C53.65 132.083 50.7146 135.089 47.0495 135.133Z" fill="#ED13F7"/>
<path d="M47.5282 174.951C43.8631 174.995 40.8562 172.059 40.8122 168.394C40.7681 164.729 43.7035 161.722 47.3686 161.678C51.0337 161.634 54.0405 164.57 54.0846 168.235C54.1287 171.9 51.1932 174.907 47.5282 174.951Z" fill="#ED13F7"/>
<path d="M48.0068 214.768C44.3417 214.812 41.3349 211.877 41.2908 208.212C41.2468 204.547 44.1822 201.54 47.8473 201.496C51.5123 201.452 54.5192 204.387 54.5633 208.052C54.6073 211.717 51.6719 214.724 48.0068 214.768Z" fill="#ED13F7"/>
<path d="M48.4855 254.585C44.8204 254.63 41.8136 251.694 41.7695 248.029C41.7254 244.364 44.6608 241.357 48.3259 241.313C51.991 241.269 54.9979 244.204 55.0419 247.869C55.086 251.535 52.1506 254.541 48.4855 254.585Z" fill="#ED13F7"/>
<path d="M48.9641 294.403C45.2991 294.447 42.2922 291.511 42.2482 287.846C42.2041 284.181 45.1395 281.174 48.8046 281.13C52.4697 281.086 55.4765 284.022 55.5206 287.687C55.5646 291.352 52.6292 294.359 48.9641 294.403Z" fill="#ED13F7"/>
<path d="M7.23219 135.612C3.56711 135.656 0.560234 132.721 0.516174 129.056C0.472115 125.391 3.40756 122.384 7.07264 122.34C10.7377 122.296 13.7446 125.231 13.7886 128.896C13.8327 132.561 10.8973 135.568 7.23219 135.612Z" fill="#ED13F7"/>
<path d="M7.71085 175.429C4.04577 175.474 1.03889 172.538 0.994833 168.873C0.950774 165.208 3.88622 162.201 7.5513 162.157C11.2164 162.113 14.2232 165.048 14.2673 168.713C14.3113 172.379 11.3759 175.385 7.71085 175.429Z" fill="#ED13F7"/>
<path d="M8.18951 215.247C4.52443 215.291 1.51755 212.355 1.47349 208.69C1.42943 205.025 4.36488 202.018 8.02996 201.974C11.695 201.93 14.7019 204.866 14.7459 208.531C14.79 212.196 11.8546 215.203 8.18951 215.247Z" fill="#ED13F7"/>
<path d="M8.66817 255.064C5.00309 255.108 1.99621 252.173 1.95215 248.508C1.90809 244.843 4.84353 241.836 8.50861 241.792C12.1737 241.748 15.1805 244.683 15.2246 248.348C15.2687 252.013 12.3332 255.02 8.66817 255.064Z" fill="#ED13F7"/>
<path d="M284.528 13.6619C280.863 13.706 277.856 10.7705 277.812 7.10545C277.768 3.44037 280.703 0.433513 284.368 0.389454C288.033 0.345394 291.04 3.28081 291.084 6.9459C291.128 10.611 288.193 13.6178 284.528 13.6619Z" fill="#ED13F7"/>
</g>
</svg>
